{"title":"The Hobbit An Unexpected Journey-720p MP4 AAC x264 BRRip 2012-CC","uid":8210022,"size":3606675030,"categoryP":"video","categoryS":"hd___movies","magnet":"?xt=urn:btih:a2aea4ef2668ba982e50dc9a474dc64d2b4f71f7&amp;dn=The+Hobbit+An+Unexpected+Journey-720p+MP4+AAC+x264+BRRip+2012-CC&amp;tr=udp%3A%2F%2Ftracker.openbittorrent.com%3A80&amp;tr=udp%3A%2F%2Fopen.demonii.com%3A1337&amp;tr=udp%3A%2F%2Ftracker.coppersurfer.tk%3A6969&amp;tr=udp%3A%2F%2Fexodus.desync.com%3A6969","seeders":4,"leechers":0,"uploader":"Caveman44","files":-1,"time":1362221038,"description":" &lt;a href=&quot;http://www.imdb.com/title/tt0903624/&quot; rel=&quot;nofollow&quot; target=&quot;_NEW&quot;&gt;http://www.imdb.com/title/tt0903624/&lt;/a&gt;\n\nSource: The.Hobbit.An.Unexpected.Journey.2012.720p.BluRay.x264-SPARKS Many thanks!\n\nSubs: Arabic, Brazilian, Danish, Dutch, English, Farsi-Persian, French, Indonesian, Malay, Norwegian, Portuguese, Spanish, Swedish and Vietnamese.\n\nSubs: Hardcoded English when needed.\n\nSample and Screens included.\n\nGeneral\nComplete name                            : The Hobbit An Unexpected Journey-720p MP4 AAC x264 BRRip 2012-CC.mp4\nFormat                                   : MPEG-4\nFormat profile                           : Base Media\nCodec ID                                 : isom\nFile size                                : 3.32 GiB\nDuration                                 : 2h 49mn\nOverall bit rate mode                    : Variable\nOverall bit rate                         : 2 801 Kbps\nEncoded date                             : UTC 2013-02-28 06:20:11\n\nVideo\nID                                       : 1\nFormat                                   : AVC\nFormat/Info                              : Advanced Video Codec\nFormat profile                           : &lt;a class=&quot;__cf_email__&quot; href=&quot;/cdn-cgi/l/email-protection&quot; data-cfemail=&quot;c28aaba5aa828ef6ecf3&quot;&gt;[email&amp;#160;protected]&lt;/a&gt;&lt;script cf-hash='f9e31' type=&quot;text/javascript&quot;&gt;\n/* &lt;![CDATA[ */!function(){try{var t=&quot;currentScript&quot;in document?document.currentScript:function(){for(var t=document.getElementsByTagName(&quot;script&quot;),e=t.length;e--;)if(t[e].getAttribute(&quot;cf-hash&quot;))return t[e]}();if(t&amp;&amp;t.previousSibling){var e,r,n,i,c=t.previousSibling,a=c.getAttribute(&quot;data-cfemail&quot;);if(a){for(e=&quot;&quot;,r=parseInt(a.substr(0,2),16),n=2;a.length-n;n+=2)i=parseInt(a.substr(n,2),16)^r,e+=String.fromCharCode(i);e=document.createTextNode(e),c.parentNode.replaceChild(e,c)}}}catch(u){}}();/* ]]&gt; */&lt;/script&gt;\nFormat settings, CABAC                   : Yes\nFormat settings, ReFrames                : 5 frames\nCodec ID                                 : avc1\nCodec ID/Info                            : Advanced Video Coding\nDuration                                 : 2h 49mn\nBit rate                                 : 2 464 Kbps\nMaximum bit rate                         : 12.0 Mbps\nWidth                                    : 1 280 pixels\nHeight                                   : 536 pixels\nDisplay aspect ratio                     : 2.40:1\nFrame rate mode                          : Variable\nFrame rate                               : 23.976 fps\nMinimum frame rate                       : 15.873 fps\nMaximum frame rate                       : 25.000 fps\nColor space                              : YUV\nChroma subsampling                       : 4:2:0\nBit depth                                : 8 bits\nScan type                                : Progressive\nBits/(Pixel*Frame)                       : 0.150\nStream size                              : 2.86 GiB (86%)\nWriting library                          : x264 core 112\n\nAudio\nID                                       : 2\nFormat                                   : AAC\nFormat/Info                              : Advanced Audio Codec\nFormat profile                           : LC\nCodec ID                                 : 40\nDuration                                 : 2h 49mn\nBit rate mode                            : Variable\nBit rate                                 : 384 Kbps\nMaximum bit rate                         : 682 Kbps\nChannel(s)                               : 6 channels\nChannel positions                        : Front: L C R, Side: L R, LFE\nSampling rate                            : 48.0 KHz\nCompression mode                         : Lossy\nDelay relative to video                  : 83ms\nStream size                              : 465 MiB (14%)\nLanguage                                 : English\n\nEnjoy...\n\nComing soon: Life of Pi, Mortal Kombat, Tropa de Elite, Le Samourai and more...","torrent":{"xt":"urn:btih:a2aea4ef2668ba982e50dc9a474dc64d2b4f71f7","amp;dn":"The+Hobbit+An+Unexpected+Journey-720p+MP4+AAC+x264+BRRip+2012-CC","amp;tr":["udp%3A%2F%2Ftracker.openbittorrent.com%3A80","udp%3A%2F%2Fopen.demonii.com%3A1337","udp%3A%2F%2Ftracker.coppersurfer.tk%3A6969","udp%3A%2F%2Fexodus.desync.com%3A6969"],"infoHash":"a2aea4ef2668ba982e50dc9a474dc64d2b4f71f7","infoHashBuffer":{"type":"Buffer","data":[162,174,164,239,38,104,186,152,46,80,220,154,71,77,198,77,43,79,113,247]},"announce":[],"urlList":[]}}